<svg width="572" height="606" viewBox="0 0 572 606" fill="none" xmlns="http://www.w3.org/2000/svg">
<path d="M12.9518 601.223C10.1865 608.021 -0.366719 605.49 0.545763 598.108C2.63682 581.193 12.7393 562.476 18.4177 546.494C33.5048 504.029 48.8516 461.653 64.4927 419.389C104.677 310.806 148.26 191.957 199.811 88.8695C212.298 63.8993 242.379 -3.77131 276.571 0.916511C312.52 5.84536 313.85 74.0861 315.143 101.352C319.032 183.346 324.667 265.347 326.775 347.417C327.65 381.509 333.922 425.6 299.597 446.318C250.202 476.131 188.609 402.818 165.469 364.15C155.191 346.975 151.125 326.232 161.766 308.142C179.642 277.754 224.104 265.214 254.095 251.521C326.265 218.571 398.827 185.795 472.378 156.026C479.349 153.204 484.542 163.251 478.094 167.204C452.806 182.708 423.828 194.07 397.414 207.649C342.81 235.718 288.367 264.258 234.885 294.421C220.936 302.288 183.523 316.791 195.737 338.672C209.152 362.706 232.731 384.542 253.186 402.684C261.017 409.629 273.621 419.784 282.986 408.892C294.339 395.688 288.393 356.341 288.05 340.737C286.758 281.999 283.467 223.322 280.678 164.642C279.222 133.996 279.654 103.088 276.603 72.5577C275.734 63.8616 274.607 55.1265 272.516 46.6293C271.532 42.6323 270.455 38.1761 268.154 34.6886C268.062 34.5492 267.738 34.1681 267.859 34.2832C269.644 35.9805 272.668 36.6109 275.007 35.8973C275.104 35.8676 275.383 35.745 275.294 35.7941C262.402 42.898 253.422 61.7864 246.412 73.8997C224.866 111.133 207.448 150.602 189.901 189.817C128.937 326.065 69.1942 462.961 12.9518 601.223Z" fill="#00655F"/>
<path d="M480.848 126.142L485.259 144.562L485.754 145.628L482.131 147.31L483.22 149.655L480.236 151.041L483.008 157.008L559.092 121.668C557.886 119.071 546.962 121.287 540.192 123.306L516.053 130.259C514.464 130.568 510.036 130.73 505.028 128.899L493.448 124.665C491.917 123.917 488.114 122.767 485.151 124.143L480.848 126.142Z" fill="black"/>
<path d="M505.201 178.569L493.97 163.317L493.475 162.251L489.852 163.934L488.763 161.59L485.78 162.975L483.008 157.008L559.092 121.668C560.298 124.265 551.558 131.182 545.648 135.053L524.764 149.013C523.503 150.027 520.522 153.306 518.691 158.314L514.457 169.895C514.04 171.546 512.466 175.194 509.503 176.571L505.201 178.569Z" fill="black"/>
</svg>
