<svg width="80" height="59" viewBox="0 0 80 59" fill="none" xmlns="http://www.w3.org/2000/svg">
<path d="M0.848478 6.14162L5.25893 24.562L5.75388 25.6276L2.13084 27.3105L3.21975 29.6548L0.236064 31.0407L3.00784 37.008L79.0918 1.66786C77.8856 -0.928907 66.9621 1.28688 60.1916 3.30576L36.0527 10.2586C34.4644 10.5685 30.036 10.7304 25.0282 8.89927L13.4477 4.66469C11.9169 3.91731 8.11439 2.76668 5.15084 4.14322L0.848478 6.14162Z" fill="black"/>
<path d="M25.2005 58.5692L13.9702 43.3166L13.4753 42.251L9.85223 43.9339L8.76332 41.5895L5.77963 42.9754L3.00784 37.008L79.0918 1.66786C80.298 4.26463 71.5583 11.1822 65.6482 15.0533L44.764 29.0132C43.5027 30.0269 40.5223 33.3063 38.6911 38.3141L34.4565 49.8946C34.0401 51.5465 32.4665 55.1943 29.5029 56.5708L25.2005 58.5692Z" fill="black"/>
</svg>
