<svg width="2001" height="2002" viewBox="0 0 2001 2002" fill="none" xmlns="http://www.w3.org/2000/svg">
<circle cx="1626" cy="1626" r="374.5" stroke="#E63946"/>
<path fill-rule="evenodd" clip-rule="evenodd" d="M1096.67 770.03C1045.83 748.97 989.454 745.275 936.295 759.519C883.137 773.763 836.164 805.149 802.662 848.81C769.159 892.471 751 945.967 751 1001V1626C751 1833.11 583.107 2001 376 2001C168.893 2001 1 1833.11 1 1626V1001C1 780.866 73.6375 566.883 207.647 392.239C341.656 217.595 529.548 92.0495 742.181 35.0745C954.814 -21.9004 1180.31 -7.1209 1383.68 77.1208C1587.06 161.363 1756.96 310.359 1867.03 501C1970.58 680.36 1909.13 909.706 1729.77 1013.26C1550.41 1116.81 1321.06 1055.36 1217.51 876C1189.99 828.34 1147.52 791.091 1096.67 770.03Z" stroke="#1D3557" stroke-linecap="round"/>
</svg>
