<svg width="2000" height="2000" viewBox="0 0 2000 2000" fill="none" xmlns="http://www.w3.org/2000/svg">
<path d="M2000 1625C2000 1832.11 1832.11 2000 1625 2000C1417.89 2000 1250 1832.11 1250 1625C1250 1417.89 1417.89 1250 1625 1250C1832.11 1250 2000 1417.89 2000 1625Z" fill="#E63946"/>
<path fill-rule="evenodd" clip-rule="evenodd" d="M1095.67 769.03C1044.83 747.97 988.454 744.275 935.295 758.519C882.137 772.763 835.164 804.149 801.662 847.81C768.159 891.471 750 944.967 750 1000V1625C750 1832.11 582.107 2000 375 2000C167.893 2000 0 1832.11 0 1625V1000C0 779.866 72.6375 565.883 206.647 391.239C340.656 216.595 528.548 91.0495 741.181 34.0745C953.814 -22.9004 1179.31 -8.1209 1382.68 76.1208C1586.06 160.363 1755.96 309.359 1866.03 500C1969.58 679.36 1908.13 908.706 1728.77 1012.26C1549.41 1115.81 1320.06 1054.36 1216.51 875C1188.99 827.34 1146.52 790.091 1095.67 769.03Z" fill="#1D3557"/>
</svg>
