<svg width="1937" height="2020" viewBox="0 0 1937 2020" fill="none" xmlns="http://www.w3.org/2000/svg">
<path fill-rule="evenodd" clip-rule="evenodd" d="M1105.67 779.03C1054.83 757.97 998.454 754.275 945.295 768.519C892.137 782.763 845.164 814.149 811.662 857.81C778.159 901.471 760 954.967 760 1010V1635C760 1842.11 592.107 2010 385 2010C177.893 2010 10 1842.11 10 1635V1010C10 789.866 82.6375 575.883 216.647 401.239C350.656 226.595 538.548 101.049 751.181 44.0745C963.814 -12.9004 1189.31 1.8791 1392.68 86.1208C1596.06 170.363 1765.96 319.359 1876.03 510C1979.58 689.36 1918.13 918.706 1738.77 1022.26C1559.41 1125.81 1330.06 1064.36 1226.51 885C1198.99 837.34 1156.52 800.091 1105.67 779.03Z" stroke="#1D3557" stroke-width="20" stroke-linecap="round"/>
</svg>
